Description

Poster: http://cdn.piczend.com/image/nqk7gvf5hko0lfgepiajp0gwf.jpeg
Release date: 2013
Genre: Comedy
Plot: A series of interconnected short films follows a washed-up producer as he pitches hilarious and insane story lines featuring some of the biggest stars in hollywood.
--------------------------------

Runtime: 1 h 34 min
Rating: 4.7/10
Votes: 6,763
Writer(s)/Director(s): Will Carlough, Greg Pritikin/Bob Odenkirk, Elizabeth Banks
Actors: Emma Stone, Stephen Merchant, Richard Gere, Liev Schreiber
Trailer: http://www.imdb.com/video/imdb/vi1305061145/

Screenshots:
 
http://cdn.piczend.com/image/nj6d6enchs8mta3raajgqgkvn.jpeg
 
http://cdn.piczend.com/image/17zhbfulcoih1kfkjrejklklv.jpeg
 
http://cdn.piczend.com/image/qsc0nfrk4zmakx2y5aqgf0pmv.jpeg
 
http://cdn.piczend.com/image/yxhiy2zquptzx4unguxtnlpdr.jpeg


Mediainfo:
General
Complete name : 	Movie 43 (2013) DVDRip 272p [Zend]/Movie 43 (2013) DVDRip 272p [Zend].mp4
Format : 	MPEG-4
Format profile : 	Base Media
Codec ID : 	isom
File size : 	1.07 GiB
Duration : 	1h 26mn
Overall bit rate : 	1 770 Kbps
Writing application : 	Lavf53.21.1

Video
ID : 	1
Format : 	AVC
Format/Info : 	Advanced Video Codec
Format profile : 	Main@L3.0
Format settings, CABAC : 	Yes
Format settings, ReFrames : 	3 frames
Codec ID : 	avc1
Codec ID/Info : 	Advanced Video Coding
Duration : 	1h 26mn
Bit rate : 	1 500 Kbps
Width : 	640 pixels
Height : 	272 pixels
Display aspect ratio : 	2.35:1
Frame rate mode : 	Constant
Frame rate : 	30.000 fps
Color space : 	YUV
Chroma subsampling : 	4:2:0
Bit depth : 	8 bits
Scan type : 	Progressive
Bits/(Pixel*Frame) : 	0.287
Stream size : 	935 MiB (85%)
Writing library : 	x264 core 123 r2189 35cf912
Encoding settings : 	cabac=1 / ref=3 / deblock=1:0:0 / analyse=0x1:0x111 / me=hex / subme=7 / psy=1 / psy_rd=1.00:0.00 / mixed_ref=0 / me_range=16 / chroma_me=1 / trellis=1 / 8x8dct=0 / cqm=0 / deadzone=21,11 / fast_pskip=1 / chroma_qp_offset=-2 / threads=6 / sliced_threads=0 / nr=0 / decimate=1 / interlaced=0 / bluray_compat=0 / constrained_intra=0 / bframes=3 / b_pyramid=0 / b_adapt=1 / b_bias=0 / direct=1 / weightb=0 / open_gop=1 / weightp=2 / keyint=250 / keyint_min=25 / scenecut=40 / intra_refresh=0 / rc_lookahead=40 / rc=abr / mbtree=1 / bitrate=1500 / ratetol=1.0 / qcomp=0.60 / qpmin=0 / qpmax=69 / qpstep=4 / ip_ratio=1.25 / aq=1:1.00

Audio
ID : 	2
Format : 	MPEG Audio
Format version : 	Version 1
Format profile : 	Layer 3
Mode : 	Joint stereo
Codec ID : 	6B
Duration : 	1h 26mn
Bit rate mode : 	Constant
Bit rate : 	256 Kbps
Channel(s) : 	2 channels
Sampling rate : 	44.1 KHz
Compression mode : 	Lossy
Delay relative to video : 	33ms
Stream size : 	159 MiB (14%)
Writing library : 	LAME3.98.4
